<?xml version="1.0" encoding="UTF-8" standalone="no"?>
<!DOCTYPE svg PUBLIC "-//W3C//DTD SVG 1.1//EN"
 "http://www.w3.org/Graphics/SVG/1.1/DTD/svg11.dtd">
<!-- Generated by graphviz version 2.26.3 (20100126.1600)
 -->
<!-- Title: G Pages: 1 -->
<svg width="388pt" height="296pt"
 viewBox="0.00 0.00 388.00 296.00" xmlns="http://www.w3.org/2000/svg" xmlns:xlink="http://www.w3.org/1999/xlink">
<g id="graph1" class="graph" transform="scale(1 1) rotate(0) translate(4 292)">
<title>G</title>
<polygon fill="white" stroke="white" points="-4,5 -4,-292 385,-292 385,5 -4,5"/>
<!-- N1 -->
<g id="node1" class="node"><title>N1</title>
<ellipse fill="none" stroke="blue" stroke-width="2" cx="190" cy="-270" rx="171.831" ry="18"/>
<text text-anchor="middle" x="190" y="-265.9" font-family="Times Roman,serif" font-size="14.00">WIGIT_CLASSNAME$VIEW_TEXT</text>
</g>
<!-- N2 -->
<g id="node2" class="node"><title>N2</title>
<polygon fill="none" stroke="black" stroke-width="2" points="304,-216 76,-216 76,-174 304,-174 304,-216"/>
<text text-anchor="middle" x="190" y="-199.4" font-family="Times Roman,serif" font-size="14.00">Tag:TAINT</text>
<text text-anchor="middle" x="190" y="-182.4" font-family="Times Roman,serif" font-size="14.00">CLASSNAME;METHODNAME_1</text>
</g>
<!-- N1&#45;&gt;N2 -->
<g id="edge2" class="edge"><title>N1&#45;&gt;N2</title>
<path fill="none" stroke="black" d="M190,-251.845C190,-244.201 190,-235.081 190,-226.407"/>
<polygon fill="black" stroke="black" points="193.5,-226.179 190,-216.179 186.5,-226.179 193.5,-226.179"/>
</g>
<!-- N3 -->
<g id="node3" class="node"><title>N3</title>
<polygon fill="none" stroke="black" stroke-width="2" points="304,-138 76,-138 76,-96 304,-96 304,-138"/>
<text text-anchor="middle" x="190" y="-121.4" font-family="Times Roman,serif" font-size="14.00">Tag:TAINT</text>
<text text-anchor="middle" x="190" y="-104.4" font-family="Times Roman,serif" font-size="14.00">CLASSNAME;METHODNAME_2</text>
</g>
<!-- N2&#45;&gt;N3 -->
<g id="edge4" class="edge"><title>N2&#45;&gt;N3</title>
<path fill="none" stroke="black" d="M183.909,-173.686C183.279,-165.798 183.101,-156.684 183.375,-148.103"/>
<polygon fill="black" stroke="black" points="186.875,-148.196 183.933,-138.018 179.885,-147.809 186.875,-148.196"/>
</g>
<!-- N3&#45;&gt;N2 -->
<g id="edge6" class="edge"><title>N3&#45;&gt;N2</title>
<path fill="none" stroke="black" d="M196.067,-138.018C196.709,-145.876 196.898,-154.98 196.636,-163.574"/>
<polygon fill="black" stroke="black" points="193.134,-163.512 196.091,-173.686 200.124,-163.889 193.134,-163.512"/>
</g>
<!-- N4 -->
<g id="node4" class="node"><title>N4</title>
<ellipse fill="none" stroke="red" stroke-width="2" cx="190" cy="-30" rx="190.212" ry="29.6985"/>
<text text-anchor="middle" x="190" y="-34.4" font-family="Times Roman,serif" font-size="14.00">Tag:TAINT</text>
<text text-anchor="middle" x="190" y="-17.4" font-family="Times Roman,serif" font-size="14.00">libcore.os.send(ADDRESS) DATA:xxx</text>
</g>
<!-- N3&#45;&gt;N4 -->
<g id="edge8" class="edge"><title>N3&#45;&gt;N4</title>
<path fill="none" stroke="black" d="M190,-95.9397C190,-88.0475 190,-78.7983 190,-69.7654"/>
<polygon fill="black" stroke="black" points="193.5,-69.7427 190,-59.7427 186.5,-69.7428 193.5,-69.7427"/>
</g>
</g>
</svg>
